<?xml version="1.0" encoding="UTF-8" standalone="no"?>
<svg xmlns="http://www.w3.org/2000/svg" width="512" height="512" viewBox="0 0 512 512">
  <!-- 배경 -->
  <rect width="512" height="512" fill="#1a1a2e" rx="54" ry="54"/>
  
  <!-- 타로 카드 -->
  <rect x="148" y="96" width="216" height="320" rx="16" ry="16" fill="#6366F1" stroke="#ffffff" stroke-width="8"/>
  
  <!-- 카드 테두리 장식 -->
  <rect x="164" y="112" width="184" height="288" rx="8" ry="8" fill="none" stroke="#ffffff" stroke-width="3" stroke-dasharray="5,5"/>
  
  <!-- 별 -->
  <g transform="translate(256, 200)">
    <path d="M0,-54 L12,-23 45,-17.5 22.5,6.4 28,40 0,24 -28,40 -22.5,6.4 -45,-17.5 -12,-23z" 
          fill="#FFD700" stroke="#ffffff" stroke-width="3"/>
  </g>
  
  <!-- 달 -->
  <path d="M 256 280 A 27 27 0 1 0 256 334 A 22 22 0 1 1 256 280" 
        fill="#E0E7FF" stroke="#ffffff" stroke-width="3"/>
  
  <!-- 작은 별들 -->
  <g fill="#ffffff">
    <circle cx="200" cy="174" r="4"/>
    <circle cx="306" cy="160" r="5"/>
    <circle cx="186" cy="266" r="3"/>
    <circle cx="324" cy="294" r="4"/>
    <circle cx="220" cy="306" r="3.5"/>
    <circle cx="294" cy="224" r="4.5"/>
    <circle cx="172" cy="220" r="3"/>
    <circle cx="340" cy="224" r="4"/>
  </g>
  
  <!-- 타로 카드 숫자 -->
  <text x="256" y="104" font-family="Arial, sans-serif" font-size="54" fill="#FFFFFF" text-anchor="middle" dominant-baseline="middle">I</text>
  <text x="408" y="256" font-family="Arial, sans-serif" font-size="54" fill="#FFFFFF" text-anchor="middle" dominant-baseline="middle">V</text>
  <text x="256" y="408" font-family="Arial, sans-serif" font-size="54" fill="#FFFFFF" text-anchor="middle" dominant-baseline="middle">X</text>
  <text x="104" y="256" font-family="Arial, sans-serif" font-size="54" fill="#FFFFFF" text-anchor="middle" dominant-baseline="middle">IV</text>
</svg>
