<?xml version="1.0" encoding="UTF-8" standalone="no"?>
<svg xmlns="http://www.w3.org/2000/svg" width="192" height="192" viewBox="0 0 192 192">
  <!-- 배경 -->
  <rect width="192" height="192" fill="#1a1a2e" rx="20" ry="20"/>
  
  <!-- 타로 카드 -->
  <rect x="56" y="36" width="80" height="120" rx="6" ry="6" fill="#6366F1" stroke="#ffffff" stroke-width="3"/>
  
  <!-- 카드 테두리 장식 -->
  <rect x="62" y="42" width="68" height="108" rx="3" ry="3" fill="none" stroke="#ffffff" stroke-width="1" stroke-dasharray="2,2"/>
  
  <!-- 별 -->
  <g transform="translate(96, 75)">
    <path d="M0,-20 L4.3,-8.5 17,-6.5 8.5,2.4 10.7,15.3 0,9.2 -10.7,15.3 -8.5,2.4 -17,-6.5 -4.3,-8.5z" 
          fill="#FFD700" stroke="#ffffff" stroke-width="1"/>
  </g>
  
  <!-- 달 -->
  <path d="M 96 105 A 10 10 0 1 0 96 125 A 8 8 0 1 1 96 105" 
        fill="#E0E7FF" stroke="#ffffff" stroke-width="1"/>
  
  <!-- 작은 별들 -->
  <g fill="#ffffff">
    <circle cx="75" cy="65" r="1.5"/>
    <circle cx="115" cy="60" r="2"/>
    <circle cx="70" cy="100" r="1"/>
    <circle cx="122" cy="110" r="1.5"/>
    <circle cx="82" cy="115" r="1.2"/>
  </g>
</svg>
