<?xml version="1.0" encoding="UTF-8" standalone="no"?>
<svg xmlns="http://www.w3.org/2000/svg" width="192" height="192" viewBox="0 0 192 192">
  <!-- 배경 -->
  <rect width="192" height="192" fill="#1a1a2e"/>
  
  <!-- 그리드 -->
  <g stroke="#6366F1" stroke-width="1" opacity="0.3">
    <!-- 수직선 -->
    <line x1="0" y1="0" x2="0" y2="192"/>
    <line x1="32" y1="0" x2="32" y2="192"/>
    <line x1="64" y1="0" x2="64" y2="192"/>
    <line x1="96" y1="0" x2="96" y2="192"/>
    <line x1="128" y1="0" x2="128" y2="192"/>
    <line x1="160" y1="0" x2="160" y2="192"/>
    <line x1="192" y1="0" x2="192" y2="192"/>
    
    <!-- 수평선 -->
    <line x1="0" y1="0" x2="192" y2="0"/>
    <line x1="0" y1="32" x2="192" y2="32"/>
    <line x1="0" y1="64" x2="192" y2="64"/>
    <line x1="0" y1="96" x2="192" y2="96"/>
    <line x1="0" y1="128" x2="192" y2="128"/>
    <line x1="0" y1="160" x2="192" y2="160"/>
    <line x1="0" y1="192" x2="192" y2="192"/>
  </g>
  
  <!-- 외부 원 -->
  <circle cx="96" cy="96" r="67" fill="none" stroke="#EC4899" stroke-width="3"/>
  
  <!-- 내부 원 -->
  <circle cx="96" cy="96" r="47" fill="none" stroke="#10B981" stroke-width="2"/>
  
  <!-- 중앙 십자가 -->
  <line x1="96" y1="64" x2="96" y2="128" stroke="#FFFFFF" stroke-width="2"/>
  <line x1="64" y1="96" x2="128" y2="96" stroke="#FFFFFF" stroke-width="2"/>
  
  <!-- 중앙 텍스트 -->
  <text x="96" y="102" font-family="Arial, sans-serif" font-weight="bold" font-size="34" fill="#FFFFFF" text-anchor="middle" dominant-baseline="middle">D33</text>
  
  <!-- 타로 카드 숫자 -->
  <text x="96" y="39" font-family="Arial, sans-serif" font-size="20" fill="#FFFFFF" text-anchor="middle" dominant-baseline="middle">I</text>
  <text x="153" y="96" font-family="Arial, sans-serif" font-size="20" fill="#FFFFFF" text-anchor="middle" dominant-baseline="middle">V</text>
  <text x="96" y="153" font-family="Arial, sans-serif" font-size="20" fill="#FFFFFF" text-anchor="middle" dominant-baseline="middle">X</text>
  <text x="39" y="96" font-family="Arial, sans-serif" font-size="20" fill="#FFFFFF" text-anchor="middle" dominant-baseline="middle">IV</text>
</svg>
