<?xml version="1.0" encoding="UTF-8"?>
<svg width="800px" height="800px" viewBox="0 0 800 800" version="1.1" xmlns="http://www.w3.org/2000/svg" xmlns:xlink="http://www.w3.org/1999/xlink">
  <defs>
    <linearGradient x1="50%" y1="0%" x2="50%" y2="100%" id="linearGradient-1">
      <stop stop-color="#2A1A5E" stop-opacity="0.2" offset="0%"></stop>
      <stop stop-color="#6366F1" stop-opacity="0.1" offset="100%"></stop>
    </linearGradient>
    <filter id="filter-2" x="-50%" y="-50%" width="200%" height="200%">
      <feGaussianBlur stdDeviation="5" in="SourceGraphic"></feGaussianBlur>
    </filter>
  </defs>
  <g stroke="none" stroke-width="1" fill="none" fill-rule="evenodd">
    <g>
      <!-- 중심 원 -->
      <circle cx="400" cy="400" r="200" fill="url(#linearGradient-1)" filter="url(#filter-2)"></circle>
      
      <!-- 격자 패턴 -->
      <path d="M100,100 L700,100 L700,700 L100,700 Z" stroke="#6366F1" stroke-width="0.5" stroke-opacity="0.1"></path>
      <path d="M200,100 L200,700" stroke="#6366F1" stroke-width="0.5" stroke-opacity="0.1"></path>
      <path d="M300,100 L300,700" stroke="#6366F1" stroke-width="0.5" stroke-opacity="0.1"></path>
      <path d="M400,100 L400,700" stroke="#6366F1" stroke-width="0.5" stroke-opacity="0.1"></path>
      <path d="M500,100 L500,700" stroke="#6366F1" stroke-width="0.5" stroke-opacity="0.1"></path>
      <path d="M600,100 L600,700" stroke="#6366F1" stroke-width="0.5" stroke-opacity="0.1"></path>
      <path d="M100,200 L700,200" stroke="#6366F1" stroke-width="0.5" stroke-opacity="0.1"></path>
      <path d="M100,300 L700,300" stroke="#6366F1" stroke-width="0.5" stroke-opacity="0.1"></path>
      <path d="M100,400 L700,400" stroke="#6366F1" stroke-width="0.5" stroke-opacity="0.1"></path>
      <path d="M100,500 L700,500" stroke="#6366F1" stroke-width="0.5" stroke-opacity="0.1"></path>
      <path d="M100,600 L700,600" stroke="#6366F1" stroke-width="0.5" stroke-opacity="0.1"></path>
      
      <!-- 대각선 -->
      <path d="M100,100 L700,700" stroke="#6366F1" stroke-width="0.5" stroke-opacity="0.1"></path>
      <path d="M700,100 L100,700" stroke="#6366F1" stroke-width="0.5" stroke-opacity="0.1"></path>
      
      <!-- 작은 점들 -->
      <circle cx="200" cy="200" r="3" fill="#6366F1" fill-opacity="0.2"></circle>
      <circle cx="300" cy="200" r="3" fill="#6366F1" fill-opacity="0.2"></circle>
      <circle cx="400" cy="200" r="3" fill="#6366F1" fill-opacity="0.2"></circle>
      <circle cx="500" cy="200" r="3" fill="#6366F1" fill-opacity="0.2"></circle>
      <circle cx="600" cy="200" r="3" fill="#6366F1" fill-opacity="0.2"></circle>
      
      <circle cx="200" cy="300" r="3" fill="#6366F1" fill-opacity="0.2"></circle>
      <circle cx="300" cy="300" r="3" fill="#6366F1" fill-opacity="0.2"></circle>
      <circle cx="400" cy="300" r="3" fill="#6366F1" fill-opacity="0.2"></circle>
      <circle cx="500" cy="300" r="3" fill="#6366F1" fill-opacity="0.2"></circle>
      <circle cx="600" cy="300" r="3" fill="#6366F1" fill-opacity="0.2"></circle>
      
      <circle cx="200" cy="400" r="3" fill="#6366F1" fill-opacity="0.2"></circle>
      <circle cx="300" cy="400" r="3" fill="#6366F1" fill-opacity="0.2"></circle>
      <circle cx="400" cy="400" r="5" fill="#6366F1" fill-opacity="0.3"></circle>
      <circle cx="500" cy="400" r="3" fill="#6366F1" fill-opacity="0.2"></circle>
      <circle cx="600" cy="400" r="3" fill="#6366F1" fill-opacity="0.2"></circle>
      
      <circle cx="200" cy="500" r="3" fill="#6366F1" fill-opacity="0.2"></circle>
      <circle cx="300" cy="500" r="3" fill="#6366F1" fill-opacity="0.2"></circle>
      <circle cx="400" cy="500" r="3" fill="#6366F1" fill-opacity="0.2"></circle>
      <circle cx="500" cy="500" r="3" fill="#6366F1" fill-opacity="0.2"></circle>
      <circle cx="600" cy="500" r="3" fill="#6366F1" fill-opacity="0.2"></circle>
      
      <circle cx="200" cy="600" r="3" fill="#6366F1" fill-opacity="0.2"></circle>
      <circle cx="300" cy="600" r="3" fill="#6366F1" fill-opacity="0.2"></circle>
      <circle cx="400" cy="600" r="3" fill="#6366F1" fill-opacity="0.2"></circle>
      <circle cx="500" cy="600" r="3" fill="#6366F1" fill-opacity="0.2"></circle>
      <circle cx="600" cy="600" r="3" fill="#6366F1" fill-opacity="0.2"></circle>
    </g>
  </g>
</svg>
