<?xml version="1.0" encoding="UTF-8" standalone="no"?>
<svg xmlns="http://www.w3.org/2000/svg" width="1200" height="630" viewBox="0 0 1200 630">
  <!-- 배경 -->
  <rect width="1200" height="630" fill="#1a1a2e"/>
  
  <!-- 그라데이션 배경 -->
  <defs>
    <linearGradient id="bgGradient" x1="0" y1="0" x2="100%" y2="100%">
      <stop offset="0%" stop-color="#6366F1" stop-opacity="0.3"/>
      <stop offset="100%" stop-color="#1a1a2e" stop-opacity="0"/>
    </linearGradient>
    <linearGradient id="textGradient" x1="0" y1="0" x2="100%" y2="100%">
      <stop offset="0%" stop-color="#ffffff"/>
      <stop offset="100%" stop-color="#E0E7FF"/>
    </linearGradient>
  </defs>
  <rect width="1200" height="630" fill="url(#bgGradient)" opacity="0.7"/>
  
  <!-- 심플한 텍스트만 표시 -->
  <text x="600" y="280" font-family="'Noto Serif KR', serif" font-size="72" font-weight="bold" 
        fill="url(#textGradient)" text-anchor="middle" dominant-baseline="middle">
    운명의 매트릭스 검사
  </text>
  
  <text x="600" y="380" font-family="'Pretendard', sans-serif" font-size="36" 
        fill="#E0E7FF" text-anchor="middle" dominant-baseline="middle">
    MBTI·타로·사주 통합 운명 분석
  </text>

  <!-- 작은 별 장식 -->
  <g transform="translate(480, 220)" opacity="0.8">
    <path d="M0,-15 L3.5,-5 13,-4 6.5,3 8,13 0,8 -8,13 -6.5,3 -13,-4 -3.5,-5z" 
          fill="#FFD700" stroke="none"/>
  </g>
  
  <g transform="translate(720, 220)" opacity="0.8">
    <path d="M0,-15 L3.5,-5 13,-4 6.5,3 8,13 0,8 -8,13 -6.5,3 -13,-4 -3.5,-5z" 
          fill="#FFD700" stroke="none"/>
  </g>
  
  <!-- 추가 작은 별들 -->
  <g fill="#FFD700" opacity="0.6">
    <circle cx="400" cy="300" r="3"/>
    <circle cx="800" cy="320" r="4"/>
    <circle cx="500" cy="420" r="2"/>
    <circle cx="700" cy="450" r="3"/>
    <circle cx="900" cy="380" r="2.5"/>
  </g>
  
  <!-- 하단 URL -->
  <text x="600" y="500" font-family="'Pretendard', sans-serif" font-size="28" 
        fill="#A5B4FC" text-anchor="middle" dominant-baseline="middle">
    destiny33.site
  </text>
</svg>
